<svg viewBox="548.9902 237.9692 23.4963 24.0611" width="26" height="26" xmlns="http://www.w3.org/2000/svg">
  <defs></defs>
  <path d="M 572.434 260.708 L 570.004 253.538 C 569.688 252.621 568.897 252.029 567.986 252.029 C 567.075 252.029 566.284 252.622 565.968 253.542 L 563.539 260.708 C 563.362 261.231 563.642 261.799 564.165 261.977 C 564.689 262.155 565.255 261.873 565.433 261.351 L 565.902 259.968 L 570.07 259.968 L 570.539 261.351 C 570.681 261.767 571.069 262.03 571.486 262.03 C 571.592 262.03 571.701 262.013 571.807 261.977 C 572.33 261.799 572.611 261.232 572.433 260.708 L 572.434 260.708 Z M 566.58 257.968 L 567.861 254.189 C 567.936 253.968 568.038 253.972 568.111 254.185 L 569.393 257.968 L 566.58 257.968 Z M 564.482 250.514 L 558.062 260.971 C 557.63 261.621 557.005 261.971 556.363 261.971 C 556.104 261.971 555.842 261.914 555.59 261.797 C 554.665 261.369 554.217 260.276 554.526 259.197 L 555.73 253.971 L 551.9 253.971 C 550.82 253.971 549.836 253.378 549.33 252.424 C 548.824 251.47 548.887 250.321 549.493 249.428 L 555.911 238.969 C 556.518 238.057 557.504 237.736 558.384 238.143 C 559.309 238.571 559.757 239.664 559.448 240.743 L 558.243 245.97 L 562.076 245.973 C 563.155 245.973 564.139 246.566 564.645 247.52 C 565.15 248.473 565.088 249.622 564.482 250.515 L 564.482 250.514 Z" style="fill: rgb(255, 255, 255);"></path>
</svg>